<svg width="62" height="62" viewBox="0 0 62 62" fill="none" xmlns="http://www.w3.org/2000/svg">
<path fill-rule="evenodd" clip-rule="evenodd" d="M55.0224 6.13171C50.9649 2.21483 45.5602 0.0374905 39.804 9.36696e-06C34.973 -0.0295408 30.3966 1.4414 26.5552 4.25671C22.8291 6.98765 20.0593 10.8764 18.7557 15.2067C17.8341 18.2691 18.2124 21.6075 19.8498 24.8611L20.0868 25.3391C23.3487 32.0193 24.2557 38.236 23.2177 46.6453C22.6444 51.292 23.7441 55.1198 26.3982 57.7158C28.8432 60.1069 32.1615 61.44 35.6077 61.44C35.8782 61.44 36.1496 61.432 36.421 61.4151C39.6296 61.2197 42.639 59.8669 44.8941 57.6061C47.1619 55.3331 48.4651 52.3481 48.5635 49.2009C48.5954 48.1772 48.5007 47.1548 48.2823 46.1625L48.2326 45.9129C47.758 43.246 49.0558 40.4532 51.518 38.8969C57.8012 34.9256 61.5066 28.2098 61.4298 20.9334C61.3707 15.3201 59.0949 10.0636 55.0224 6.13171ZM28.6833 7.16062C31.8966 4.80562 35.7348 3.5803 39.781 3.60021C44.6082 3.6314 49.133 5.45015 52.5221 8.72155C55.8962 11.9789 57.7815 16.3294 57.8302 20.9714C57.8935 26.9906 54.8148 32.5542 49.5943 35.8537L49.2708 36.0659C47.5689 37.2238 46.2425 38.7987 45.4219 40.6411C44.528 42.6483 44.3012 44.8251 44.7666 46.9373L44.8365 47.2898C44.9407 47.88 44.9841 48.4837 44.9649 49.0884C44.8955 51.3183 43.9651 53.4403 42.3455 55.0636C40.7129 56.7005 38.5308 57.6801 36.2021 57.8217C33.481 57.9872 30.8265 57.0108 28.9154 55.1419C27.069 53.3362 26.3541 50.6259 26.791 47.0864C27.5968 40.5567 27.7843 32.617 23.0654 23.2425L22.9713 23.0518C22.1581 21.3673 21.4112 18.8766 22.2033 16.2445C23.2824 12.6581 25.584 9.43171 28.6833 7.16062ZM11.1301 24.9787C11.8215 24.2648 12.9615 24.247 13.6749 24.9384C17.1563 28.3116 19.0735 32.8073 19.0735 37.5975C19.0735 42.3876 17.1563 46.8834 13.6754 50.2566C13.3257 50.5955 12.8738 50.7642 12.4229 50.7642C11.9527 50.7642 11.483 50.5809 11.1301 50.2167C10.4382 49.5028 10.456 48.3633 11.1699 47.6714C13.9454 44.9822 15.4735 41.4047 15.4735 37.5975C15.4735 33.7908 13.9454 30.2133 11.1699 27.5241C10.456 26.8322 10.4382 25.6926 11.1301 24.9787ZM8.4146 30.0361C7.70022 29.3442 6.56069 29.3625 5.86929 30.0764C5.17741 30.7903 5.19522 31.9298 5.90913 32.6217C7.28444 33.9539 8.04147 35.7211 8.04147 37.5975C8.04147 39.4744 7.28444 41.2416 5.90913 42.5737C5.19522 43.2656 5.17741 44.4051 5.86929 45.1191C6.22226 45.4833 6.69147 45.6665 7.1621 45.6665C7.61304 45.6665 8.06491 45.4978 8.4146 45.1594C10.4954 43.1428 11.6415 40.4573 11.6415 37.5975C11.6415 34.7381 10.4954 32.0526 8.4146 30.0361ZM0.531162 33.7992C1.23663 33.0984 2.37616 33.1022 3.07694 33.8072C5.03819 35.7811 5.03819 38.9925 3.07694 40.9664C2.72538 41.3203 2.26272 41.4975 1.80007 41.4975C1.34116 41.4975 0.882255 41.3236 0.531162 40.9744C-0.134672 40.3125 -0.175007 39.2593 0.412919 38.5504L0.523193 38.4291C1.05845 37.8903 1.0919 37.0347 0.623553 36.4563L0.523193 36.3445C-0.177589 35.6395 -0.173838 34.4995 0.531162 33.7992ZM52.6337 21.1547C52.6337 14.1905 46.8123 8.52468 39.6568 8.52468L39.3466 8.52824C32.3343 8.68918 26.6804 14.2914 26.6804 21.1547L26.6883 21.3448C26.7358 21.8479 26.9935 22.3113 27.4023 22.6172C27.8565 22.957 28.4443 23.0625 28.9885 22.9026C30.0362 22.5947 31.2348 22.7034 32.1952 23.1937C33.6258 23.925 34.5202 25.4512 34.4204 26.9916C34.321 28.5155 33.2537 29.9189 31.764 30.4833L31.6211 30.5445C30.7875 30.9449 30.3852 31.9239 30.7187 32.8045C30.9915 33.5241 31.6758 33.967 32.4024 33.967C32.6143 33.967 32.8299 33.9291 33.0399 33.8498C35.8252 32.7942 37.8235 30.1322 38.0124 27.225C38.2046 24.2714 36.5246 21.3633 33.8326 19.988C32.8079 19.4644 31.6683 19.177 30.5171 19.1339C31.4724 15.1247 35.2079 12.1247 39.6568 12.1247C44.8271 12.1247 49.0332 16.1756 49.0332 21.1547C49.0332 22.1489 49.8394 22.9547 50.8332 22.9547C51.8274 22.9547 52.6337 22.1489 52.6337 21.1547Z" fill="#FF6565"/>
</svg>
