<svg width="95" height="66" viewBox="0 0 95 66" fill="none" xmlns="http://www.w3.org/2000/svg">
<path fill-rule="evenodd" clip-rule="evenodd" d="M45.1039 1.97133C45.027 0.881522 44.1186 0.0213013 43.0092 0.0213013C41.8494 0.0213013 40.9092 0.961501 40.9092 2.1213V63.2784L40.9145 63.4284C40.9914 64.5182 41.8998 65.3784 43.0092 65.3784C44.169 65.3784 45.1092 64.4382 45.1092 63.2784V2.1213L45.1039 1.97133ZM53.2858 7.17899C53.2089 6.08895 52.3005 5.229 51.1911 5.229C50.0313 5.229 49.0911 6.1692 49.0911 7.329V58.071L49.0964 58.221C49.1733 59.3108 50.0817 60.171 51.1911 60.171C52.3509 60.171 53.2911 59.2308 53.2911 58.071V7.329L53.2858 7.17899ZM34.8276 14.5764C35.937 14.5764 36.8454 15.4366 36.9223 16.5264L36.9276 16.6764V48.7236C36.9276 49.8834 35.9874 50.8236 34.8276 50.8236C33.7182 50.8236 32.8098 49.9634 32.7329 48.8736L32.7276 48.7236V16.6764C32.7276 15.5166 33.6678 14.5764 34.8276 14.5764ZM61.4674 17.5944C61.3905 16.5046 60.4821 15.6444 59.3727 15.6444C58.2129 15.6444 57.2727 16.5846 57.2727 17.7444V47.6553L57.278 47.8053C57.3549 48.8951 58.2633 49.7553 59.3727 49.7553C60.5325 49.7553 61.4727 48.8151 61.4727 47.6553V17.7444L61.4674 17.5944ZM26.6454 20.7189C27.7551 20.7189 28.6633 21.5788 28.7401 22.6689L28.7454 22.8189V42.5814C28.7454 43.7412 27.8052 44.6814 26.6454 44.6814C25.536 44.6814 24.6276 43.8212 24.5507 42.7314L24.5454 42.5814V22.8189C24.5454 21.6591 25.4856 20.7189 26.6454 20.7189ZM69.6496 23.8701C69.5727 22.7803 68.6643 21.9201 67.5549 21.9201C66.3951 21.9201 65.4549 22.8603 65.4549 24.0201V41.3793L65.4602 41.5293C65.5371 42.6191 66.4455 43.4793 67.5549 43.4793C68.7147 43.4793 69.6549 42.5391 69.6549 41.3793V24.0201L69.6496 23.8701ZM18.4638 24.1905C19.5732 24.1905 20.4816 25.0507 20.5585 26.1405L20.5638 26.2905V39.1095C20.5638 40.2693 19.6236 41.2095 18.4638 41.2095C17.3544 41.2095 16.446 40.3493 16.3691 39.2595L16.3638 39.1095V26.2905C16.3638 25.1307 17.304 24.1905 18.4638 24.1905ZM77.8315 26.5413C77.7546 25.4515 76.8462 24.5913 75.7368 24.5913C74.577 24.5913 73.6368 25.5315 73.6368 26.6913V38.709L73.6421 38.859C73.719 39.9488 74.6274 40.809 75.7368 40.809C76.8966 40.809 77.8368 39.8688 77.8368 38.709V26.6913L77.8315 26.5413ZM2.1 27.1284C3.20937 27.1284 4.11783 27.9883 4.19473 29.0784L4.2 29.2284V36.1719C4.2 37.3317 3.2598 38.2719 2.1 38.2719C0.990626 38.2719 0.0821716 37.4117 0.00527272 36.3219L0 36.1719V29.2284C0 28.0686 0.9402 27.1284 2.1 27.1284ZM12.3766 29.0784C12.2998 27.9883 11.3916 27.1284 10.2819 27.1284C9.1221 27.1284 8.1819 28.0686 8.1819 29.2284V36.1719L8.18717 36.3219C8.26407 37.4117 9.17253 38.2719 10.2819 38.2719C11.4417 38.2719 12.3819 37.3317 12.3819 36.1719V29.2284L12.3766 29.0784ZM83.9184 27.1284C85.0278 27.1284 85.9362 27.9883 86.0131 29.0784L86.0184 29.2284V36.1719C86.0184 37.3317 85.0782 38.2719 83.9184 38.2719C82.809 38.2719 81.9006 37.4117 81.8237 36.3219L81.8184 36.1719V29.2284C81.8184 28.0686 82.7586 27.1284 83.9184 27.1284ZM94.1947 29.0784C94.1178 27.9883 93.2094 27.1284 92.1 27.1284C90.9402 27.1284 90 28.0686 90 29.2284V36.1719L90.0053 36.3219C90.0822 37.4117 90.9906 38.2719 92.1 38.2719C93.2598 38.2719 94.2 37.3317 94.2 36.1719V29.2284L94.1947 29.0784Z" fill="#FF6565"/>
</svg>
